Normalized EMG Linear Envelopes
nRows=191
nColumns=4

endheader
time	 med_gas_r	  soleus_r	 tib_ant_r	
2.62786	  0.063930	  0.109429	  0.011261	
2.66112	  0.062799	  0.109375	  0.010656	
2.69438	  0.062054	  0.109346	  0.010133	
2.72765	  0.061813	  0.109397	  0.009751	
2.76091	  0.062101	  0.109580	  0.009522	
2.79418	  0.062882	  0.109862	  0.009420	
2.82744	  0.064049	  0.110025	  0.009403	
2.8607	  0.065366	  0.109759	  0.009433	
2.89397	  0.066492	  0.108949	  0.009490	
2.92723	  0.067131	  0.107885	  0.009571	
2.9605	  0.067235	  0.107094	  0.009678	
2.99376	  0.067014	  0.106962	  0.009819	
3.02702	  0.066739	  0.107511	  0.009998	
3.06029	  0.066505	  0.108485	  0.010204	
3.09355	  0.066173	  0.109570	  0.010418	
3.12682	  0.065521	  0.110570	  0.010606	
3.16008	  0.064460	  0.111478	  0.010733	
3.19334	  0.063137	  0.112452	  0.010773	
3.22661	  0.061890	  0.113671	  0.010717	
3.25987	  0.061095	  0.115174	  0.010584	
3.29314	  0.060998	  0.116827	  0.010414	
3.3264	  0.061600	  0.118442	  0.010256	
3.35966	  0.062661	  0.119883	  0.010157	
3.39293	  0.063834	  0.121089	  0.010140	
3.42619	  0.064838	  0.122067	  0.010202	
3.45946	  0.065556	  0.122911	  0.010317	
3.49272	  0.066000	  0.123719	  0.010438	
3.52598	  0.066239	  0.124402	  0.010508	
3.55925	  0.066370	  0.124615	  0.010479	
3.59251	  0.066534	  0.123956	  0.010342	
3.62578	  0.066890	  0.122306	  0.010133	
3.65904	  0.067501	  0.119974	  0.009915	
3.6923	  0.068253	  0.117543	  0.009739	
3.72557	  0.068909	  0.115618	  0.009622	
3.75883	  0.069268	  0.114611	  0.009546	
3.7921	  0.069301	  0.114617	  0.009487	
3.82536	  0.069119	  0.115425	  0.009427	
3.85862	  0.068854	  0.116682	  0.009364	
3.89189	  0.068555	  0.118097	  0.009303	
3.92515	  0.068205	  0.119487	  0.009243	
3.95842	  0.067800	  0.120673	  0.009181	
3.99168	  0.067407	  0.121416	  0.009114	
4.02494	  0.067151	  0.121526	  0.009045	
4.05821	  0.067160	  0.121026	  0.008993	
4.09147	  0.067495	  0.120168	  0.008978	
4.12474	  0.068109	  0.119304	  0.009010	
4.158	  0.068850	  0.118721	  0.009077	
4.19126	  0.069501	  0.118566	  0.009146	
4.22453	  0.069839	  0.118875	  0.009176	
4.25779	  0.069722	  0.119641	  0.009149	
4.29106	  0.069163	  0.120831	  0.009083	
4.32432	  0.068332	  0.122324	  0.009030	
4.35758	  0.067469	  0.123890	  0.009040	
4.39085	  0.066767	  0.125265	  0.009132	
4.42411	  0.066325	  0.126291	  0.009276	
4.45738	  0.066170	  0.127024	  0.009406	
4.49064	  0.066288	  0.127710	  0.009446	
4.5239	  0.066624	  0.128647	  0.009352	
4.55717	  0.067090	  0.129999	  0.009127	
4.59043	  0.067626	  0.131679	  0.008822	
4.6237	  0.068263	  0.133381	  0.008504	
4.65696	  0.069129	  0.134775	  0.008245	
4.69022	  0.070357	  0.135741	  0.008116	
4.72349	  0.071973	  0.136446	  0.008208	
4.75675	  0.073830	  0.137171	  0.008631	
4.79002	  0.075656	  0.138024	  0.009512	
4.82328	  0.077149	  0.138805	  0.010985	
4.85654	  0.078048	  0.139161	  0.013187	
4.88981	  0.078162	  0.138879	  0.016211	
4.92307	  0.077406	  0.138060	  0.019990	
4.95634	  0.075857	  0.137068	  0.024146	
4.9896	  0.073789	  0.136383	  0.028013	
5.02286	  0.071622	  0.136532	  0.030926	
5.05613	  0.069779	  0.138069	  0.032632	
5.08939	  0.068518	  0.141486	  0.033457	
5.12266	  0.067840	  0.146940	  0.034037	
5.15592	  0.067533	  0.153953	  0.034832	
5.18918	  0.067331	  0.161321	  0.035880	
5.22245	  0.067087	  0.167489	  0.036971	
5.25571	  0.066873	  0.171282	  0.037989	
5.28898	  0.066940	  0.172582	  0.038998	
5.32224	  0.067592	  0.172386	  0.040033	
5.3555	  0.069064	  0.172136	  0.040905	
5.38877	  0.071507	  0.172836	  0.041320	
5.42203	  0.075043	  0.174669	  0.041190	
5.4553	  0.079752	  0.177344	  0.040763	
5.48856	  0.085474	  0.180709	  0.040393	
5.52182	  0.091567	  0.185017	  0.040208	
5.55509	  0.096957	  0.190687	  0.040070	
5.58835	  0.100602	  0.197951	  0.039873	
5.62162	  0.102080	  0.206726	  0.039807	
5.65488	  0.101784	  0.216655	  0.040294	
5.68814	  0.100576	  0.227147	  0.041697	
5.72141	  0.099259	  0.237422	  0.044180	
5.75467	  0.098321	  0.246673	  0.047893	
5.78794	  0.098001	  0.254314	  0.053150	
5.8212	  0.098364	  0.260112	  0.060240	
5.85446	  0.099258	  0.264212	  0.068987	
5.88773	  0.100322	  0.267109	  0.078584	
5.92099	  0.101222	  0.269512	  0.088072	
5.95426	  0.101930	  0.272077	  0.097064	
5.98752	  0.102752	  0.275170	  0.105976	
6.02078	  0.104093	  0.278964	  0.115512	
6.05405	  0.106193	  0.283753	  0.125943	
6.08731	  0.108990	  0.290101	  0.136936	
6.12058	  0.112151	  0.298648	  0.148044	
6.15384	  0.115205	  0.309779	  0.159326	
6.1871	  0.117755	  0.323434	  0.171530	
6.22037	  0.119649	  0.338979	  0.185852	
6.25363	  0.121028	  0.355079	  0.203677	
6.2869	  0.122258	  0.369757	  0.226463	
6.32016	  0.123819	  0.380930	  0.255519	
6.35342	  0.126124	  0.387257	  0.291380	
6.38669	  0.129286	  0.388733	  0.332983	
6.41995	  0.132972	  0.386546	  0.377243	
6.45322	  0.136543	  0.382339	  0.419556	
6.48648	  0.139432	  0.377431	  0.455149	
6.51974	  0.141414	  0.372538	  0.480662	
6.55301	  0.142591	  0.368055	  0.495174	
6.58627	  0.143183	  0.364617	  0.500234	
6.61954	  0.143394	  0.363487	  0.499042	
6.6528	  0.143420	  0.366375	  0.495435	
6.68606	  0.143529	  0.374649	  0.493201	
6.71933	  0.144067	  0.388385	  0.495648	
6.75259	  0.145330	  0.405996	  0.504875	
6.78586	  0.147371	  0.424794	  0.520689	
6.81912	  0.149925	  0.442038	  0.540035	
6.85238	  0.152571	  0.455721	  0.558054	
6.88565	  0.155010	  0.464782	  0.570645	
6.91891	  0.157172	  0.469008	  0.576805	
6.95218	  0.159030	  0.468874	  0.578849	
6.98544	  0.160336	  0.465325	  0.580245	
7.0187	  0.160613	  0.459457	  0.582792	
7.05197	  0.159482	  0.452319	  0.585418	
7.08523	  0.157060	  0.444992	  0.585384	
7.1185	  0.154035	  0.438744	  0.580644	
7.15176	  0.151273	  0.434888	  0.571318	
7.18502	  0.149230	  0.434268	  0.559361	
7.21829	  0.147745	  0.436746	  0.547154	
7.25155	  0.146426	  0.441159	  0.536219	
7.28482	  0.145203	  0.445844	  0.526643	
7.31808	  0.144395	  0.449379	  0.517275	
7.35134	  0.144260	  0.451066	  0.506625	
7.38461	  0.144663	  0.450941	  0.494161	
7.41787	  0.145288	  0.449445	  0.481169	
7.45114	  0.146069	  0.447033	  0.470384	
7.4844	  0.147161	  0.443829	  0.464489	
7.51766	  0.148463	  0.439483	  0.464632	
7.55093	  0.149385	  0.433367	  0.470125	
7.58419	  0.149332	  0.425120	  0.479382	
7.61746	  0.148398	  0.415099	  0.491019	
7.65072	  0.147445	  0.404254	  0.504044	
7.68398	  0.147354	  0.393555	  0.517219	
7.71725	  0.148255	  0.383600	  0.528709	
7.75051	  0.149521	  0.374828	  0.536759	
7.78378	  0.150447	  0.367973	  0.540837	
7.81704	  0.150832	  0.364108	  0.541983	
7.8503	  0.150920	  0.364132	  0.542017	
7.88357	  0.150968	  0.368145	  0.542533	
7.91683	  0.151008	  0.375203	  0.544576	
7.9501	  0.151003	  0.383602	  0.548752	
7.98336	  0.151068	  0.391460	  0.555005	
8.01662	  0.151453	  0.397292	  0.562061	
8.04989	  0.152336	  0.400350	  0.567568	
8.08315	  0.153682	  0.400660	  0.569345	
8.11642	  0.155265	  0.398824	  0.566794	
8.14968	  0.156762	  0.395682	  0.561133	
8.18294	  0.157859	  0.392034	  0.554307	
8.21621	  0.158401	  0.388641	  0.547745	
8.24947	  0.158531	  0.386460	  0.542012	
8.28274	  0.158694	  0.386729	  0.537254	
8.316	  0.159402	  0.390481	  0.533588	
8.34926	  0.160894	  0.397655	  0.530977	
8.38253	  0.162956	  0.406587	  0.528985	
8.41579	  0.165068	  0.414601	  0.527061	
8.44906	  0.166783	  0.419490	  0.525371	
8.48232	  0.168038	  0.420742	  0.525361	
8.51558	  0.169122	  0.419491	  0.529139	
8.54885	  0.170321	  0.417333	  0.537759	
8.58211	  0.171572	  0.415210	  0.549687	
8.61538	  0.172377	  0.413397	  0.560955	
8.64864	  0.172071	  0.412383	  0.567377	
8.6819	  0.170314	  0.413455	  0.567421	
8.71517	  0.167483	  0.418129	  0.563626	
8.74843	  0.164616	  0.426821	  0.561376	
8.7817	  0.162822	  0.438076	  0.565836	
8.81496	  0.162614	  0.449138	  0.579105	
8.84822	  0.163774	  0.457359	  0.599331	
8.88149	  0.165827	  0.461237	  0.621900	
8.91475	  0.168593	  0.460496	  0.641532	
8.94802	  0.172277	  0.455626	  0.653957	
